<?xml version="1.0" encoding="UTF-8" standalone="no"?>
<!-- Created with Inkscape (http://www.inkscape.org/) -->

<svg
   width="400"
   height="400"
   viewBox="0 0 105.83333 105.83333"
   version="1.1"
   id="svg5"
   xmlns="http://www.w3.org/2000/svg"
   xmlns:svg="http://www.w3.org/2000/svg">
  <defs
     id="defs2" />
  <g
     id="layer1">
    <path
       id="rect1164"
       style="stroke:#000000;stroke-width:3;stroke-linecap:round"
       d="m 53.143526,26.675463 c -0.899504,-0.0052 -1.800642,0.334344 -2.493904,1.019576 l -9.884668,9.769947 c -0.0014,0.0014 -0.0027,0.0028 -0.0041,0.0041 L 14.969112,62.962137 c -1.386523,1.370465 -1.399402,3.589918 -0.02894,4.976441 l 9.769946,9.884668 c 1.370464,1.386523 3.590434,1.399404 4.976957,0.02894 l 23.292636,-23.023401 23.0234,23.293152 c 1.370467,1.386524 3.589918,1.399402 4.97644,0.02894 l 9.884666,-9.770465 c 1.386524,-1.370465 1.399404,-3.589917 0.02894,-4.976435 L 65.396009,37.608646 55.626063,27.723978 C 54.94083,27.030716 54.043031,26.680703 53.143526,26.675463 Z" />
  </g>
</svg>
